<svg width="170" height="42" viewBox="0 0 170 42" fill="none" xmlns="http://www.w3.org/2000/svg">
<g clip-path="url(#clip0_5_5397)">
<path d="M30.2614 34L23.6023 10.7273H28.9773L32.8295 26.8977H33.0227L37.2727 10.7273H41.875L46.1136 26.9318H46.3182L50.1705 10.7273H55.5455L48.8864 34H44.0909L39.6591 18.7841H39.4773L35.0568 34H30.2614ZM70.5852 17.4205C70.4943 16.5038 70.1042 15.7917 69.4148 15.2841C68.7254 14.7765 67.7898 14.5227 66.608 14.5227C65.8049 14.5227 65.1269 14.6364 64.5739 14.8636C64.0208 15.0833 63.5966 15.3902 63.3011 15.7841C63.0133 16.178 62.8693 16.625 62.8693 17.125C62.8542 17.5417 62.9413 17.9053 63.1307 18.2159C63.3277 18.5265 63.5966 18.7955 63.9375 19.0227C64.2784 19.2424 64.6723 19.4356 65.1193 19.6023C65.5663 19.7614 66.0436 19.8977 66.5511 20.0114L68.642 20.5114C69.6572 20.7386 70.589 21.0417 71.4375 21.4205C72.286 21.7992 73.0208 22.2652 73.642 22.8182C74.2633 23.3712 74.7443 24.0227 75.0852 24.7727C75.4337 25.5227 75.6117 26.3826 75.6193 27.3523C75.6117 28.7765 75.2481 30.0114 74.5284 31.0568C73.8163 32.0947 72.786 32.9015 71.4375 33.4773C70.0966 34.0455 68.4792 34.3295 66.5852 34.3295C64.7064 34.3295 63.0701 34.0417 61.6761 33.4659C60.2898 32.8902 59.2064 32.0379 58.4261 30.9091C57.6534 29.7727 57.2481 28.3674 57.2102 26.6932H61.9716C62.0246 27.4735 62.2481 28.125 62.642 28.6477C63.0436 29.1629 63.5777 29.553 64.2443 29.8182C64.9186 30.0758 65.6799 30.2045 66.5284 30.2045C67.3617 30.2045 68.0852 30.0833 68.6989 29.8409C69.3201 29.5985 69.8011 29.2614 70.142 28.8295C70.483 28.3977 70.6534 27.9015 70.6534 27.3409C70.6534 26.8182 70.4981 26.3788 70.1875 26.0227C69.8845 25.6667 69.4375 25.3636 68.8466 25.1136C68.2633 24.8636 67.5473 24.6364 66.6989 24.4318L64.1648 23.7955C62.2027 23.3182 60.6534 22.572 59.517 21.5568C58.3807 20.5417 57.8163 19.1742 57.8239 17.4545C57.8163 16.0455 58.1913 14.8144 58.9489 13.7614C59.714 12.7083 60.7633 11.8864 62.0966 11.2955C63.4299 10.7045 64.9451 10.4091 66.642 10.4091C68.3693 10.4091 69.8769 10.7045 71.1648 11.2955C72.4602 11.8864 73.4678 12.7083 74.1875 13.7614C74.9072 14.8144 75.2784 16.0341 75.3011 17.4205H70.5852ZM78.929 34V10.7273H83.8494V20.3295H93.8381V10.7273H98.7472V34H93.8381V24.3864H83.8494V34H78.929ZM124.19 22.3636C124.19 24.9015 123.709 27.0606 122.747 28.8409C121.793 30.6212 120.49 31.9811 118.838 32.9205C117.194 33.8523 115.346 34.3182 113.293 34.3182C111.224 34.3182 109.368 33.8485 107.724 32.9091C106.08 31.9697 104.781 30.6098 103.827 28.8295C102.872 27.0492 102.395 24.8939 102.395 22.3636C102.395 19.8258 102.872 17.6667 103.827 15.8864C104.781 14.1061 106.08 12.75 107.724 11.8182C109.368 10.8788 111.224 10.4091 113.293 10.4091C115.346 10.4091 117.194 10.8788 118.838 11.8182C120.49 12.75 121.793 14.1061 122.747 15.8864C123.709 17.6667 124.19 19.8258 124.19 22.3636ZM119.202 22.3636C119.202 20.7197 118.955 19.3333 118.463 18.2045C117.978 17.0758 117.293 16.2197 116.406 15.6364C115.52 15.053 114.482 14.7614 113.293 14.7614C112.103 14.7614 111.065 15.053 110.179 15.6364C109.293 16.2197 108.603 17.0758 108.111 18.2045C107.626 19.3333 107.384 20.7197 107.384 22.3636C107.384 24.0076 107.626 25.3939 108.111 26.5227C108.603 27.6515 109.293 28.5076 110.179 29.0909C111.065 29.6742 112.103 29.9659 113.293 29.9659C114.482 29.9659 115.52 29.6742 116.406 29.0909C117.293 28.5076 117.978 27.6515 118.463 26.5227C118.955 25.3939 119.202 24.0076 119.202 22.3636ZM127.835 34V10.7273H137.017C138.782 10.7273 140.286 11.0644 141.528 11.7386C142.771 12.4053 143.718 13.3333 144.369 14.5227C145.028 15.7045 145.358 17.0682 145.358 18.6136C145.358 20.1591 145.025 21.5227 144.358 22.7045C143.691 23.8864 142.725 24.8068 141.46 25.4659C140.203 26.125 138.68 26.4545 136.892 26.4545H131.04V22.5114H136.097C137.044 22.5114 137.824 22.3485 138.438 22.0227C139.059 21.6894 139.521 21.2311 139.824 20.6477C140.134 20.0568 140.29 19.3788 140.29 18.6136C140.29 17.8409 140.134 17.1667 139.824 16.5909C139.521 16.0076 139.059 15.5568 138.438 15.2386C137.816 14.9129 137.028 14.75 136.074 14.75H132.756V34H127.835Z" fill="black"/>
</g>
<defs>
<clipPath id="clip0_5_5397">
<rect width="170" height="42" fill="white"/>
</clipPath>
</defs>
</svg>
