<svg width="17" height="19" viewBox="0 0 17 19" fill="none" xmlns="http://www.w3.org/2000/svg">
<path d="M4.26675 4.42146H14.6047C15.2465 4.42146 15.7222 5.01748 15.5798 5.6433L15.0307 8.05675C14.72 9.42229 13.5059 10.3912 12.1054 10.3912H5.18708M0.804443 1H2.15559C3.15181 1 3.99614 1.73318 4.13583 2.71957L5.37555 11.4738C5.51524 12.4602 6.35957 13.1934 7.3558 13.1934H14.4996" stroke="white" stroke-width="1.5"/>
<mask id="path-2-inside-1_5_5502" fill="white">
<ellipse cx="7.39363" cy="16.6992" rx="1.4322" ry="1.67011"/>
</mask>
<path d="M7.32583 16.6992C7.32583 16.8161 7.28479 16.8837 7.26769 16.9037C7.26023 16.9124 7.26434 16.9042 7.28759 16.8928C7.31306 16.8802 7.35083 16.8693 7.39363 16.8693V19.8693C9.22103 19.8693 10.3258 18.2254 10.3258 16.6992H7.32583ZM7.39363 16.8693C7.43643 16.8693 7.4742 16.8802 7.49967 16.8928C7.52291 16.9042 7.52702 16.9124 7.51956 16.9037C7.50247 16.8837 7.46143 16.8161 7.46143 16.6992H4.46143C4.46143 18.2254 5.56623 19.8693 7.39363 19.8693V16.8693ZM7.46143 16.6992C7.46143 16.5822 7.50247 16.5146 7.51956 16.4947C7.52702 16.486 7.52291 16.4941 7.49967 16.5056C7.4742 16.5181 7.43643 16.5291 7.39363 16.5291V13.5291C5.56623 13.5291 4.46143 15.1729 4.46143 16.6992H7.46143ZM7.39363 16.5291C7.35083 16.5291 7.31306 16.5181 7.28759 16.5056C7.26434 16.4941 7.26023 16.486 7.26769 16.4947C7.28479 16.5146 7.32583 16.5822 7.32583 16.6992H10.3258C10.3258 15.1729 9.22103 13.5291 7.39363 13.5291V16.5291Z" fill="white" mask="url(#path-2-inside-1_5_5502)"/>
<mask id="path-4-inside-2_5_5502" fill="white">
<ellipse cx="13.6951" cy="16.6992" rx="1.4322" ry="1.67011"/>
</mask>
<path d="M13.6273 16.6992C13.6273 16.8161 13.5863 16.8837 13.5692 16.9037C13.5617 16.9124 13.5659 16.9042 13.5891 16.8928C13.6146 16.8802 13.6523 16.8693 13.6951 16.8693V19.8693C15.5225 19.8693 16.6273 18.2254 16.6273 16.6992H13.6273ZM13.6951 16.8693C13.7379 16.8693 13.7757 16.8802 13.8012 16.8928C13.8244 16.9042 13.8285 16.9124 13.8211 16.9037C13.804 16.8837 13.7629 16.8161 13.7629 16.6992H10.7629C10.7629 18.2254 11.8677 19.8693 13.6951 19.8693V16.8693ZM13.7629 16.6992C13.7629 16.5822 13.804 16.5146 13.8211 16.4947C13.8285 16.486 13.8244 16.4941 13.8012 16.5056C13.7757 16.5181 13.7379 16.5291 13.6951 16.5291V13.5291C11.8677 13.5291 10.7629 15.1729 10.7629 16.6992H13.7629ZM13.6951 16.5291C13.6523 16.5291 13.6146 16.5181 13.5891 16.5056C13.5659 16.4941 13.5617 16.486 13.5692 16.4947C13.5863 16.5146 13.6273 16.5822 13.6273 16.6992H16.6273C16.6273 15.1729 15.5225 13.5291 13.6951 13.5291V16.5291Z" fill="white" mask="url(#path-4-inside-2_5_5502)"/>
</svg>
